%TF.GenerationSoftware,KiCad,Pcbnew,9.0.2*%
%TF.CreationDate,2025-06-23T11:31:14-05:00*%
%TF.ProjectId,e'sPad,65277350-6164-42e6-9b69-6361645f7063,rev?*%
%TF.SameCoordinates,Original*%
%TF.FileFunction,Soldermask,Bot*%
%TF.FilePolarity,Negative*%
%FSLAX46Y46*%
G04 Gerber Fmt 4.6, Leading zero omitted, Abs format (unit mm)*
G04 Created by KiCad (PCBNEW 9.0.2) date 2025-06-23 11:31:14*
%MOMM*%
%LPD*%
G01*
G04 APERTURE LIST*
%ADD10C,1.700000*%
%ADD11C,4.000000*%
%ADD12C,2.200000*%
%ADD13C,1.500000*%
%ADD14R,2.000000X2.000000*%
%ADD15C,2.000000*%
%ADD16R,3.200000X2.000000*%
%ADD17C,1.524000*%
G04 APERTURE END LIST*
D10*
%TO.C,SW4*%
X133032500Y-80962500D03*
D11*
X138112500Y-80962500D03*
D10*
X143192500Y-80962500D03*
D12*
X140652500Y-75882500D03*
X134302500Y-78422500D03*
%TD*%
D10*
%TO.C,SW3*%
X133032500Y-61912500D03*
D11*
X138112500Y-61912500D03*
D10*
X143192500Y-61912500D03*
D12*
X140652500Y-56832500D03*
X134302500Y-59372500D03*
%TD*%
D13*
%TO.C,SW7*%
X126206250Y-37981250D03*
X126206250Y-42981250D03*
D14*
X111706250Y-37981250D03*
D15*
X111706250Y-42981250D03*
X111706250Y-40481250D03*
D16*
X119206250Y-34881250D03*
X119206250Y-46081250D03*
%TD*%
D10*
%TO.C,SW5*%
X152082500Y-61912500D03*
D11*
X157162500Y-61912500D03*
D10*
X162242500Y-61912500D03*
D12*
X159702500Y-56832500D03*
X153352500Y-59372500D03*
%TD*%
D10*
%TO.C,SW6*%
X152082500Y-80962500D03*
D11*
X157162500Y-80962500D03*
D10*
X162242500Y-80962500D03*
D12*
X159702500Y-75882500D03*
X153352500Y-78422500D03*
%TD*%
D17*
%TO.C,U1*%
X130016250Y-33337500D03*
X130016250Y-35877500D03*
X130016250Y-38417500D03*
X130016250Y-40957500D03*
X130016250Y-43497500D03*
X130016250Y-46037500D03*
X130016250Y-48577500D03*
X145256250Y-48577500D03*
X145256250Y-46037500D03*
X145256250Y-43497500D03*
X145256250Y-40957500D03*
X145256250Y-38417500D03*
X145256250Y-35877500D03*
X145256250Y-33337500D03*
%TD*%
D10*
%TO.C,SW1*%
X113982500Y-61912500D03*
D11*
X119062500Y-61912500D03*
D10*
X124142500Y-61912500D03*
D12*
X121602500Y-56832500D03*
X115252500Y-59372500D03*
%TD*%
D10*
%TO.C,SW2*%
X113982500Y-80962500D03*
D11*
X119062500Y-80962500D03*
D10*
X124142500Y-80962500D03*
D12*
X121602500Y-75882500D03*
X115252500Y-78422500D03*
%TD*%
M02*
