M48
; DRILL file {KiCad 9.0.2} date 2025-06-23T11:31:33-0500
; FORMAT={-:-/ absolute / metric / decimal}
; #@! TF.CreationDate,2025-06-23T11:31:33-05:00
; #@! TF.GenerationSoftware,Kicad,Pcbnew,9.0.2
; #@! TF.FileFunction,Plated,1,2,PTH
FMAT,2
METRIC
; #@! TA.AperFunction,Plated,PTH,ViaDrill
T1C0.300
; #@! TA.AperFunction,Plated,PTH,ComponentDrill
T2C0.889
; #@! TA.AperFunction,Plated,PTH,ComponentDrill
T3C1.000
; #@! TA.AperFunction,Plated,PTH,ComponentDrill
T4C1.500
%
G90
G05
T1
X126.206Y-59.972
X128.588Y-61.912
X138.112Y-54.769
X141.252Y-61.912
X156.531Y-35.719
T2
X130.016Y-33.337
X130.016Y-35.877
X130.016Y-38.417
X130.016Y-40.957
X130.016Y-43.497
X130.016Y-46.038
X130.016Y-48.578
X145.256Y-33.337
X145.256Y-35.877
X145.256Y-38.417
X145.256Y-40.957
X145.256Y-43.497
X145.256Y-46.038
X145.256Y-48.578
T3
X111.706Y-37.981
X111.706Y-40.481
X111.706Y-42.981
X126.206Y-37.981
X126.206Y-42.981
T4
X115.252Y-59.372
X115.252Y-78.422
X121.602Y-56.832
X121.602Y-75.882
X134.302Y-59.372
X134.302Y-78.422
X140.653Y-56.832
X140.653Y-75.882
X153.352Y-59.372
X153.352Y-78.422
X159.702Y-56.832
X159.702Y-75.882
T4
G00X118.556Y-34.881
M15
G01X119.856Y-34.881
M16
G05
G00X118.556Y-46.081
M15
G01X119.856Y-46.081
M16
G05
M30
